<svg xmlns="http://www.w3.org/2000/svg" width="1024" height="1024" viewBox="0 0 1024 1024">
<g>
<path d="M 298.30 728.65 C296.28,729.49 291.12,730.00 284.53,730.00 L 274.00 730.00 L 274.00 685.00 L 285.10 685.00 C297.85,685.00 301.53,686.21 305.81,691.81 C308.17,694.91 308.54,696.41 308.85,704.22 C309.04,709.11 308.91,714.67 308.55,716.57 C307.75,720.82 302.66,726.83 298.30,728.65 ZM 763.99 741.50 C757.35,744.94 743.39,743.71 743.58,739.72 C743.74,736.39 743.77,734.92 744.48,734.40 C745.03,734.00 746.00,734.17 747.78,734.49 C747.93,734.52 748.09,734.55 748.25,734.58 C756.37,736.01 760.00,734.74 760.00,730.45 C760.00,728.23 759.90,728.20 756.99,729.65 C751.77,732.26 744.72,729.22 741.48,722.96 C739.49,719.12 739.55,707.76 741.57,703.49 C743.87,698.64 746.36,696.83 751.50,696.25 C755.28,695.82 756.49,696.12 758.41,697.92 C760.40,699.78 760.83,699.88 761.34,698.55 C761.76,697.46 763.29,697.00 766.47,697.00 L 771.00 697.00 L 771.00 715.25 C770.99,735.59 770.28,738.25 763.99,741.50 ZM 360.17 742.97 C355.77,744.19 351.80,744.14 346.75,742.80 C343.60,741.96 343.00,741.37 343.02,739.15 C343.04,734.63 344.11,733.89 349.21,734.85 C355.03,735.93 360.00,734.13 360.00,730.94 C360.00,729.06 359.65,728.89 357.25,729.59 C346.12,732.86 339.66,726.80 339.56,713.00 C339.51,706.60 339.87,704.96 342.00,701.80 C343.38,699.76 345.53,697.63 346.80,697.05 C350.21,695.49 355.24,695.78 357.96,697.69 C359.67,698.89 360.49,699.03 360.77,698.19 C361.00,697.51 363.06,697.00 365.58,697.00 L 370.00 697.00 L 370.00 734.93 L 366.92 738.44 C365.19,740.41 362.23,742.40 360.17,742.97 ZM 663.82 728.33 C660.45,730.79 652.48,731.48 648.48,729.66 C640.54,726.06 636.46,716.55 638.99,707.55 C641.66,697.99 652.53,693.27 662.38,697.39 C669.87,700.52 673.26,713.45 668.82,721.94 C667.55,724.38 665.30,727.26 663.82,728.33 ZM 724.80 728.30 C721.80,730.54 714.85,731.34 710.35,729.96 C706.73,728.85 701.32,723.14 700.40,719.45 C700.05,718.06 699.95,714.33 700.18,711.15 C700.91,701.11 706.52,696.00 716.82,696.00 C726.76,696.00 732.34,702.80 731.77,714.22 C731.42,721.34 729.83,724.54 724.80,728.30 ZM 569.78 717.26 L 569.50 729.50 L 564.75 729.80 L 560.00 730.11 L 560.00 682.00 L 570.00 682.00 L 570.00 700.15 L 572.63 698.07 C576.08,695.36 581.91,695.35 585.33,698.05 C588.92,700.87 589.99,705.62 589.99,718.80 L 590.00 730.10 L 579.50 729.50 L 579.00 717.01 C578.46,703.47 578.20,702.98 572.45,704.42 C570.11,705.01 570.06,705.29 569.78,717.26 ZM 507.53 729.89 C501.35,731.44 498.15,731.25 493.27,729.04 C483.10,724.42 480.79,709.43 488.92,700.72 C492.27,697.13 493.29,696.64 498.33,696.22 C509.07,695.33 514.00,699.93 514.00,710.83 L 514.00 716.93 L 504.25 717.21 L 494.50 717.50 L 497.30 720.34 C499.94,723.03 500.42,723.15 505.96,722.50 C511.31,721.88 511.94,722.01 512.99,723.98 C514.55,726.90 513.08,728.49 507.53,729.89 ZM 610.00 717.52 L 610.00 730.00 L 605.17 730.00 C602.51,730.00 600.03,729.70 599.67,729.33 C599.30,728.97 599.00,721.54 599.00,712.83 L 599.00 697.00 L 604.00 697.00 C607.78,697.00 609.00,697.37 609.00,698.50 C609.00,700.43 609.90,700.40 612.13,698.38 C613.11,697.49 615.85,696.55 618.21,696.28 C621.57,695.91 623.09,696.27 625.22,697.95 C628.92,700.87 629.99,705.52 629.99,718.80 L 630.00 730.10 L 619.50 729.50 L 619.00 717.01 C618.46,703.46 618.21,702.98 612.42,704.43 C610.02,705.03 610.00,705.15 610.00,717.52 ZM 794.06 740.26 C792.26,742.27 790.31,743.24 787.50,743.53 C782.46,744.05 781.00,743.40 781.02,740.67 C781.04,737.78 782.09,736.31 784.47,735.86 C785.55,735.65 787.08,734.32 787.88,732.90 C789.23,730.50 788.97,729.24 784.28,715.41 C781.50,707.21 778.91,699.71 778.51,698.75 C777.87,697.21 778.44,697.00 783.35,697.00 L 788.92 697.00 L 790.43 702.08 C791.26,704.87 792.23,708.70 792.58,710.58 C792.93,712.46 793.56,714.00 793.96,714.00 C794.37,714.00 795.51,710.96 796.49,707.25 C799.17,697.18 799.31,697.00 805.04,697.00 C807.77,697.00 810.00,697.41 810.00,697.90 C810.00,698.40 806.99,707.49 803.31,718.10 C799.02,730.46 795.70,738.42 794.06,740.26 ZM 469.00 693.10 L 469.00 730.00 L 464.17 730.00 C461.51,730.00 459.03,729.70 458.67,729.33 C458.30,728.97 458.00,720.66 458.00,710.88 L 458.00 693.10 L 452.25 692.80 L 446.50 692.50 L 445.88 685.00 L 481.12 685.00 L 480.50 692.50 L 474.75 692.80 ZM 545.01 728.87 C537.70,732.98 528.24,730.43 524.25,723.26 C521.24,717.87 521.12,707.96 523.99,703.24 C530.77,692.13 551.00,694.36 551.00,706.22 C551.00,708.83 550.74,709.00 546.66,709.00 C543.00,709.00 542.14,708.61 541.18,706.50 C539.72,703.29 535.71,703.15 533.56,706.22 C531.73,708.83 531.51,715.84 533.15,719.43 C535.07,723.64 540.25,723.93 541.53,719.91 C542.01,718.41 543.08,718.00 546.57,718.00 C550.30,718.00 551.00,718.31 551.00,719.95 C551.00,723.51 548.84,726.72 545.01,728.87 ZM 419.81 727.31 C419.52,730.27 419.21,730.52 415.50,730.75 C411.12,731.01 408.42,729.87 405.77,726.62 C404.39,724.93 404.04,722.46 404.02,714.32 C404.00,704.53 403.91,704.13 401.75,703.82 C400.04,703.58 399.43,702.74 399.19,700.33 C398.93,697.66 399.26,697.10 401.19,696.83 C403.13,696.55 403.55,695.82 403.81,692.25 L 404.11 688.00 L 413.89 688.00 L 414.19 692.25 C414.45,695.78 414.88,696.55 416.75,696.82 C418.58,697.08 419.00,697.77 419.00,700.57 C419.00,703.56 418.68,704.00 416.50,704.00 C414.03,704.00 414.00,704.10 414.00,712.47 C414.00,720.92 414.01,720.95 417.06,722.53 C419.64,723.87 420.07,724.61 419.81,727.31 ZM 690.00 682.00 L 690.00 730.00 L 680.00 730.00 L 680.00 682.00 ZM 284.67 721.33 C285.03,721.70 287.20,722.00 289.49,722.00 C295.70,722.00 298.29,718.80 298.82,710.49 C299.66,697.28 297.26,693.00 289.00,693.00 L 284.00 693.00 L 284.00 706.83 C284.00,714.44 284.30,720.97 284.67,721.33 ZM 391.00 697.00 L 391.00 730.00 L 386.67 730.00 C384.28,730.00 382.03,729.70 381.67,729.33 C381.30,728.97 381.00,721.54 381.00,712.83 L 381.00 697.00 ZM 329.77 713.25 L 329.50 729.50 L 324.75 729.80 L 320.00 730.11 L 320.00 697.00 L 330.05 697.00 ZM 712.98 721.19 C715.38,723.13 716.85,723.40 718.60,722.23 C721.94,720.01 723.09,711.71 720.71,707.00 C719.73,705.06 718.67,704.50 716.00,704.50 C711.53,704.50 709.76,707.60 710.33,714.44 C710.63,718.02 711.36,719.87 712.98,721.19 ZM 651.00 721.00 C655.65,725.65 660.00,721.88 660.00,713.21 C660.00,706.50 658.72,704.00 655.29,704.00 C650.77,704.00 649.00,706.57 649.00,713.15 C649.00,717.67 649.46,719.46 651.00,721.00 ZM 351.57 721.08 C353.53,723.24 355.24,723.48 358.07,721.96 C359.73,721.08 360.00,719.82 360.00,713.07 C360.00,706.83 359.67,705.09 358.42,704.61 C355.58,703.52 353.34,703.96 351.52,705.97 C349.09,708.67 349.12,718.37 351.57,721.08 ZM 752.54 721.65 C753.55,722.39 755.08,722.99 755.94,722.98 C759.55,722.95 760.09,721.52 759.79,712.91 L 759.50 704.50 L 756.31 704.19 C753.80,703.95 752.77,704.43 751.44,706.45 C749.16,709.94 749.86,719.69 752.54,721.65 ZM 330.00 685.00 C330.00,687.93 329.89,688.00 325.00,688.00 C320.11,688.00 320.00,687.93 320.00,685.00 C320.00,682.07 320.11,682.00 325.00,682.00 C329.89,682.00 330.00,682.07 330.00,685.00 ZM 391.00 685.00 C391.00,687.93 390.89,688.00 386.00,688.00 C381.11,688.00 381.00,687.93 381.00,685.00 C381.00,682.07 381.11,682.00 386.00,682.00 C390.89,682.00 391.00,682.07 391.00,685.00 ZM 495.00 708.69 C495.00,709.58 496.47,710.00 499.57,710.00 C503.96,710.00 504.12,709.89 503.82,707.25 C503.56,705.04 502.92,704.43 500.55,704.16 C497.56,703.82 495.00,705.92 495.00,708.69 Z" fill="rgb(3,3,3)"/>
<path d="M 418.75 779.73 C415.29,782.44 408.50,781.60 408.50,778.47 C408.50,777.39 409.30,776.37 410.31,776.18 C411.60,775.93 412.04,776.35 411.81,777.63 C411.43,779.83 414.88,780.80 416.11,778.85 C418.00,775.87 417.13,774.33 413.84,774.81 C409.99,775.38 408.00,773.16 408.00,768.31 C408.00,762.78 413.03,759.54 418.42,761.61 C419.68,762.09 420.00,763.87 420.00,770.48 C420.00,775.91 419.57,779.09 418.75,779.73 ZM 585.75 779.19 C582.97,782.70 574.21,781.21 575.65,777.47 C576.43,775.43 578.81,775.62 578.64,777.71 C578.47,779.82 581.94,780.70 583.11,778.85 C585.04,775.81 584.13,774.39 580.52,774.81 C577.44,775.17 576.90,774.88 575.92,772.36 C573.31,765.62 577.83,759.74 584.36,761.38 C586.93,762.02 587.00,762.24 587.00,769.83 C587.00,774.55 586.51,778.24 585.75,779.19 ZM 563.20 774.36 C561.97,773.58 560.95,773.61 559.50,774.48 C554.79,777.31 550.85,772.00 552.95,765.65 C554.16,761.99 555.58,761.00 559.62,761.00 C561.70,761.00 562.03,760.58 561.79,758.25 C561.59,756.34 561.96,755.50 563.00,755.50 C564.19,755.50 564.61,757.45 565.02,765.00 C565.31,770.22 565.40,774.71 565.22,774.96 C565.05,775.22 564.14,774.95 563.20,774.36 ZM 444.80 773.80 C442.90,775.70 438.21,775.26 437.04,773.07 C434.23,767.83 437.08,761.00 442.06,761.00 C444.53,761.00 445.00,760.60 445.00,758.50 C445.00,756.94 445.57,756.00 446.50,756.00 C447.72,756.00 448.00,757.61 448.00,764.50 C448.00,769.50 448.41,773.00 449.00,773.00 C449.55,773.00 450.00,773.45 450.00,774.00 C450.00,774.55 449.10,775.00 448.00,775.00 C446.90,775.00 446.00,774.46 446.00,773.80 C446.00,772.87 445.73,772.87 444.80,773.80 ZM 543.81 771.72 C542.73,773.99 541.74,774.56 538.41,774.80 C533.54,775.16 531.85,773.58 531.70,768.58 C531.47,760.23 541.45,757.78 544.02,765.56 C544.88,768.18 544.84,769.57 543.81,771.72 ZM 473.80 773.80 C472.52,775.08 467.77,775.44 466.67,774.33 C464.77,772.43 466.23,769.76 470.02,768.18 C473.03,766.92 473.97,766.00 473.77,764.51 C473.62,763.42 472.71,762.37 471.75,762.19 C470.44,761.94 470.00,762.52 470.00,764.51 C470.00,767.68 467.66,767.43 467.19,764.21 C466.82,761.74 470.37,760.37 474.46,761.40 C476.36,761.88 477.04,762.86 477.50,765.76 C477.82,767.82 478.28,770.74 478.52,772.25 C478.87,774.47 478.57,775.00 476.98,775.00 C475.89,775.00 475.00,774.46 475.00,773.80 C475.00,772.87 474.73,772.87 473.80,773.80 ZM 613.92 773.75 C613.20,774.44 611.34,775.00 609.80,775.00 C607.52,775.00 607.00,774.56 607.00,772.62 C607.00,769.84 608.45,768.43 612.31,767.46 C614.43,766.93 615.03,766.24 614.80,764.63 C614.37,761.56 610.41,761.68 610.74,764.75 C611.01,767.33 608.29,767.92 607.36,765.49 C606.46,763.16 608.90,761.00 612.42,761.00 C616.68,761.00 618.00,762.57 618.00,767.64 C618.00,769.97 618.45,772.16 619.00,772.50 C620.66,773.53 620.12,775.00 618.08,775.00 C617.03,775.00 615.96,774.44 615.71,773.75 C615.34,772.75 614.98,772.75 613.92,773.75 ZM 701.74 773.29 C700.83,776.02 694.39,775.98 692.25,773.22 C690.12,770.49 690.68,764.33 693.22,762.56 C697.45,759.60 703.00,761.08 703.00,765.16 C703.00,767.28 700.11,769.00 696.57,769.00 C695.15,769.00 694.00,769.39 694.00,769.88 C694.00,771.64 697.05,773.22 699.53,772.75 C701.02,772.46 701.94,772.69 701.74,773.29 ZM 460.43 775.02 C459.02,775.56 457.79,775.97 457.68,775.93 C453.01,774.22 451.56,771.72 452.17,766.40 C452.62,762.56 456.78,760.19 460.67,761.55 C466.17,763.49 464.05,769.00 457.81,769.00 C456.26,769.00 455.00,769.39 455.00,769.88 C455.00,771.63 458.05,773.22 460.49,772.76 C463.77,772.13 463.73,773.77 460.43,775.02 ZM 374.20 769.85 C373.98,773.54 373.48,775.00 372.45,775.00 C371.34,775.00 371.00,773.57 371.00,769.00 C371.00,765.10 370.59,763.00 369.83,763.00 C369.19,763.00 369.00,762.67 369.40,762.27 C369.81,761.86 372.58,761.43 375.56,761.31 C382.01,761.05 383.00,762.20 383.00,769.93 C383.00,773.57 382.61,775.00 381.62,775.00 C380.68,775.00 380.11,773.28 379.79,769.50 C379.27,763.22 378.60,762.13 376.20,763.64 C375.04,764.37 374.40,766.33 374.20,769.85 ZM 511.00 770.52 C511.00,774.68 510.01,776.68 508.64,775.31 C508.29,774.95 508.00,772.27 508.00,769.33 C508.00,766.40 507.55,764.00 507.00,764.00 C506.45,764.00 506.00,763.33 506.00,762.50 C506.00,761.67 506.89,761.00 508.00,761.00 C509.10,761.00 510.00,761.41 510.00,761.91 C510.00,762.42 511.30,762.34 512.92,761.72 C517.24,760.09 518.76,761.87 519.16,769.05 C519.45,774.18 519.26,775.00 517.75,775.00 C516.28,775.00 516.00,774.05 516.00,769.00 C516.00,763.78 515.75,763.00 514.11,763.00 C511.77,763.00 511.00,764.88 511.00,770.52 ZM 397.00 770.58 C397.00,773.84 396.61,775.00 395.50,775.00 C394.33,775.00 394.00,773.67 394.00,769.00 C394.00,765.00 393.60,763.00 392.80,763.00 C391.88,763.00 391.89,762.71 392.82,761.78 C393.78,760.82 394.47,760.81 395.98,761.75 C397.20,762.51 398.13,762.60 398.51,761.98 C398.85,761.44 400.23,761.00 401.58,761.00 C404.56,761.00 406.00,764.11 406.00,770.57 C406.00,773.84 405.61,775.00 404.50,775.00 C403.51,775.00 403.00,774.01 403.00,772.12 C403.00,766.55 401.83,763.00 399.98,763.00 C397.77,763.00 397.00,764.95 397.00,770.58 ZM 355.06 773.66 C355.80,774.40 354.30,774.74 350.00,774.80 C349.81,774.80 349.62,774.81 349.43,774.81 C346.63,774.85 345.12,774.88 344.25,774.14 C343.17,773.25 343.05,771.21 342.65,766.69 C342.20,761.62 342.35,760.92 343.82,761.20 C345.10,761.44 345.57,762.81 345.81,767.01 C346.16,773.23 347.18,774.92 349.46,773.04 C350.50,772.17 351.00,770.00 351.00,766.38 C351.00,762.26 351.35,761.00 352.50,761.00 C353.66,761.00 354.00,762.31 354.00,766.80 C354.00,769.99 354.48,773.08 355.06,773.66 ZM 662.00 773.86 C662.00,774.88 650.24,775.20 649.63,774.19 C649.40,773.81 649.05,770.80 648.85,767.50 C648.57,762.68 648.79,761.50 650.00,761.50 C651.14,761.50 651.57,762.99 651.80,767.75 C652.02,772.34 652.47,774.00 653.51,774.00 C655.63,774.00 657.00,770.69 657.00,765.57 C657.00,762.17 657.39,761.00 658.50,761.00 C659.67,761.00 660.00,762.33 660.00,767.00 C660.00,770.33 660.44,773.00 661.00,773.00 C661.55,773.00 662.00,773.39 662.00,773.86 ZM 490.89 773.51 C487.69,776.63 481.00,775.92 481.00,772.45 C481.00,770.55 482.63,770.58 483.36,772.50 C484.00,774.17 487.55,774.54 488.48,773.04 C488.81,772.51 487.26,770.92 485.04,769.52 C480.96,766.95 479.98,764.42 482.20,762.20 C483.96,760.44 489.94,760.68 490.65,762.54 C491.57,764.94 490.00,765.72 488.47,763.62 C487.67,762.54 486.45,762.00 485.55,762.34 C483.12,763.28 483.71,764.63 487.52,766.88 C491.66,769.32 492.82,771.62 490.89,773.51 ZM 714.89 773.47 C711.75,776.44 705.00,775.80 705.00,772.53 C705.00,770.57 706.61,770.54 707.36,772.50 C708.00,774.17 711.55,774.54 712.48,773.04 C712.81,772.51 711.26,770.92 709.04,769.52 C704.96,766.95 703.98,764.42 706.20,762.20 C707.96,760.44 713.94,760.68 714.65,762.54 C715.57,764.94 714.00,765.72 712.47,763.62 C711.67,762.54 710.45,762.00 709.55,762.34 C707.12,763.28 707.71,764.63 711.52,766.88 C715.65,769.31 716.83,771.63 714.89,773.47 ZM 672.78 774.44 C671.56,775.30 670.94,775.74 670.28,775.82 C669.59,775.91 668.85,775.61 667.32,775.00 L 667.24 774.97 C662.77,773.17 661.85,766.30 665.57,762.57 C667.43,760.71 672.10,760.50 673.80,762.20 C675.47,763.87 675.30,766.00 673.50,766.00 C672.67,766.00 672.00,765.35 672.00,764.56 C672.00,762.43 670.12,761.65 668.41,763.08 C667.41,763.91 667.00,765.70 667.20,768.41 C667.45,771.81 667.89,772.56 669.81,772.83 C671.07,773.01 672.76,772.61 673.56,771.95 C674.49,771.17 675.00,771.13 675.00,771.82 C675.00,772.41 674.00,773.59 672.78,774.44 ZM 644.80 773.80 C643.01,775.59 636.07,775.33 635.35,773.46 C634.48,771.21 635.98,770.21 637.12,772.26 C638.36,774.46 643.00,774.61 643.00,772.45 C643.00,771.60 641.48,770.26 639.62,769.49 C637.76,768.71 635.96,767.35 635.62,766.46 L 635.58 766.34 C635.21,765.38 635.01,764.87 635.10,764.43 C635.20,763.93 635.64,763.50 636.57,762.57 C638.61,760.53 643.88,760.52 644.65,762.54 C645.56,764.91 644.15,765.59 642.63,763.51 C641.82,762.40 640.65,761.92 639.66,762.30 C637.30,763.21 638.57,765.43 642.54,767.32 C646.11,769.02 647.01,771.59 644.80,773.80 ZM 627.20 773.80 C628.13,774.73 627.82,775.00 625.81,775.00 C622.49,775.00 622.00,773.58 622.00,764.03 C622.00,758.25 622.36,756.07 623.40,755.68 C625.67,754.80 626.00,755.90 626.00,764.47 C626.00,769.46 626.46,773.06 627.20,773.80 ZM 529.00 773.89 C529.00,775.21 526.51,775.93 525.07,775.04 C523.46,774.05 521.97,762.06 523.16,759.75 C524.27,757.61 527.00,757.43 527.00,759.50 C527.00,760.33 527.79,761.01 528.75,761.03 C530.42,761.06 530.42,761.13 528.75,762.39 C526.83,763.85 526.18,773.00 528.00,773.00 C528.55,773.00 529.00,773.40 529.00,773.89 ZM 686.07 774.96 C685.05,775.51 684.57,775.80 684.06,775.85 C683.54,775.90 682.99,775.67 681.79,775.19 C681.65,775.13 681.49,775.06 681.32,774.99 C674.31,772.17 676.42,761.00 683.96,761.00 C687.59,761.00 689.78,764.10 687.50,766.00 C686.29,767.00 685.85,766.73 684.99,764.48 C683.98,761.82 683.89,761.79 681.97,763.52 C678.07,767.06 680.49,773.71 685.34,772.79 C688.44,772.19 688.86,773.47 686.07,774.96 ZM 727.80 771.88 C727.54,774.16 726.98,774.54 723.46,774.80 C719.11,775.12 717.98,774.55 718.03,772.08 C718.06,770.72 718.25,770.74 719.39,772.25 C720.82,774.13 724.51,774.61 725.48,773.04 C725.81,772.51 724.26,770.92 722.04,769.52 C717.15,766.44 716.39,762.44 720.50,761.41 C723.90,760.56 728.00,761.71 728.00,763.52 C728.00,765.45 725.38,765.44 724.64,763.50 C723.88,761.53 721.00,761.56 721.00,763.53 C721.00,764.38 722.60,766.01 724.55,767.16 C727.39,768.84 728.05,769.79 727.80,771.88 ZM 604.00 774.00 C604.00,775.64 599.26,775.13 598.61,773.42 C598.27,772.55 598.00,769.94 598.00,767.62 C598.00,765.30 597.46,762.86 596.80,762.20 C595.87,761.27 595.87,761.00 596.80,761.00 C597.46,761.00 598.00,760.33 598.00,759.50 C598.00,758.67 598.89,758.00 600.00,758.00 C601.11,758.00 602.00,758.67 602.00,759.50 C602.00,760.33 602.79,761.03 603.75,761.07 C605.14,761.12 605.04,761.36 603.25,762.22 C601.38,763.12 601.00,764.11 601.00,768.15 C601.00,771.79 601.37,773.00 602.50,773.00 C603.33,773.00 604.00,773.45 604.00,774.00 ZM 338.62 774.81 C338.21,775.46 337.57,775.96 337.19,775.92 C334.56,775.62 334.00,774.40 334.00,769.00 C334.00,765.31 333.54,762.95 332.75,762.58 C331.75,762.12 331.75,761.88 332.75,761.42 C333.44,761.10 334.00,760.20 334.00,759.42 C334.00,758.64 334.67,758.00 335.50,758.00 C336.33,758.00 337.00,758.67 337.00,759.50 C337.00,760.33 337.79,761.01 338.75,761.03 C340.42,761.06 340.42,761.13 338.75,762.39 C336.70,763.95 336.25,772.58 338.18,773.23 C338.82,773.44 339.02,774.15 338.62,774.81 ZM 362.00 770.58 C362.00,773.84 361.61,775.00 360.50,775.00 C359.35,775.00 359.00,773.72 359.00,769.50 C359.00,766.47 358.55,764.00 358.00,764.00 C357.45,764.00 357.00,763.36 357.00,762.57 C357.00,761.49 358.28,761.19 362.25,761.32 C366.87,761.48 367.54,761.77 367.82,763.75 C368.03,765.26 367.63,766.00 366.57,766.00 C365.71,766.00 365.00,765.33 365.00,764.50 C365.00,763.67 364.60,763.00 364.11,763.00 C362.75,763.00 362.00,765.69 362.00,770.58 ZM 535.71 773.38 C536.10,773.77 537.34,773.95 538.46,773.79 C540.12,773.55 540.56,772.65 540.80,768.91 C541.14,763.58 539.14,760.81 536.50,763.00 C534.96,764.28 534.37,772.04 535.71,773.38 ZM 556.69 773.35 C558.79,775.46 562.55,769.35 561.57,765.43 C560.88,762.66 557.56,762.10 556.61,764.58 C555.78,766.73 555.84,772.50 556.69,773.35 ZM 579.67 773.33 C581.76,775.43 584.00,772.34 584.00,767.36 C584.00,762.72 582.72,761.16 580.46,763.04 C578.98,764.26 578.39,772.05 579.67,773.33 ZM 439.80 771.46 C440.44,772.86 441.40,774.00 441.94,774.00 C443.60,774.00 445.14,770.09 444.81,766.70 C444.58,764.28 444.02,763.50 442.52,763.50 C439.82,763.50 438.25,768.07 439.80,771.46 ZM 412.41 772.61 C413.95,776.63 417.21,772.34 416.81,766.82 C416.56,763.27 416.14,762.50 414.50,762.50 C412.85,762.50 412.44,763.27 412.19,766.86 C412.01,769.26 412.11,771.85 412.41,772.61 ZM 503.54 767.58 C504.25,774.12 503.64,776.17 501.25,775.29 C499.36,774.60 499.52,761.00 501.42,761.00 C502.43,761.00 503.04,762.89 503.54,767.58 ZM 433.00 768.00 C433.00,773.56 432.69,775.00 431.50,775.00 C430.31,775.00 430.00,773.56 430.00,768.00 C430.00,762.44 430.31,761.00 431.50,761.00 C432.69,761.00 433.00,762.44 433.00,768.00 ZM 572.00 768.00 C572.00,773.56 571.69,775.00 570.50,775.00 C569.31,775.00 569.00,773.56 569.00,768.00 C569.00,762.44 569.31,761.00 570.50,761.00 C571.69,761.00 572.00,762.44 572.00,768.00 ZM 594.00 768.00 C594.00,773.56 593.69,775.00 592.50,775.00 C591.31,775.00 591.00,773.56 591.00,768.00 C591.00,762.44 591.31,761.00 592.50,761.00 C593.69,761.00 594.00,762.44 594.00,768.00 ZM 389.80 768.33 C390.04,773.81 389.82,775.00 388.55,775.00 C387.30,775.00 387.00,773.64 387.00,767.92 C387.00,762.70 387.33,760.94 388.25,761.25 C389.04,761.51 389.61,764.11 389.80,768.33 ZM 455.00 766.20 C455.00,768.10 455.83,768.39 458.42,767.39 C460.31,766.67 460.56,762.00 458.70,762.00 C456.84,762.00 455.00,764.09 455.00,766.20 ZM 694.00 766.19 C694.00,767.64 694.58,768.06 696.24,767.82 C698.68,767.47 699.82,764.42 698.14,762.74 C696.72,761.32 694.00,763.60 694.00,766.19 ZM 610.00 771.54 C610.00,773.51 613.63,773.41 614.40,771.41 C614.73,770.54 614.75,769.41 614.44,768.91 C613.64,767.60 610.00,769.76 610.00,771.54 ZM 469.17 771.33 C468.90,772.75 469.35,773.09 471.15,772.83 C472.44,772.65 473.63,771.69 473.83,770.67 C474.10,769.25 473.65,768.91 471.85,769.17 C470.56,769.35 469.37,770.31 469.17,771.33 ZM 390.00 757.50 C390.00,758.33 389.11,759.00 388.00,759.00 C386.89,759.00 386.00,758.33 386.00,757.50 C386.00,756.67 386.89,756.00 388.00,756.00 C389.11,756.00 390.00,756.67 390.00,757.50 ZM 751.00 773.50 C751.00,774.33 750.11,775.00 749.00,775.00 C747.89,775.00 747.00,774.33 747.00,773.50 C747.00,772.67 747.89,772.00 749.00,772.00 C750.11,772.00 751.00,772.67 751.00,773.50 ZM 743.00 773.50 C743.00,775.01 740.89,775.56 739.69,774.36 C738.76,773.43 739.89,772.00 741.56,772.00 C742.35,772.00 743.00,772.67 743.00,773.50 ZM 433.00 757.50 C433.00,758.33 432.33,759.00 431.50,759.00 C430.67,759.00 430.00,758.33 430.00,757.50 C430.00,756.67 430.67,756.00 431.50,756.00 C432.33,756.00 433.00,756.67 433.00,757.50 ZM 503.00 757.50 C503.00,758.33 502.33,759.00 501.50,759.00 C500.67,759.00 500.00,758.33 500.00,757.50 C500.00,756.67 500.67,756.00 501.50,756.00 C502.33,756.00 503.00,756.67 503.00,757.50 ZM 572.00 757.50 C572.00,758.33 571.33,759.00 570.50,759.00 C569.67,759.00 569.00,758.33 569.00,757.50 C569.00,756.67 569.67,756.00 570.50,756.00 C571.33,756.00 572.00,756.67 572.00,757.50 ZM 594.00 757.50 C594.00,758.33 593.33,759.00 592.50,759.00 C591.67,759.00 591.00,758.33 591.00,757.50 C591.00,756.67 591.67,756.00 592.50,756.00 C593.33,756.00 594.00,756.67 594.00,757.50 ZM 735.00 773.50 C735.00,774.33 734.33,775.00 733.50,775.00 C732.67,775.00 732.00,774.33 732.00,773.50 C732.00,772.67 732.67,772.00 733.50,772.00 C734.33,772.00 735.00,772.67 735.00,773.50 Z" fill="rgb(85,83,84)"/>
<path d="M 301.00 643.55 C277.61,647.10 253.53,643.48 231.56,633.12 C197.25,616.94 173.45,587.67 163.94,550.00 C160.95,538.17 160.22,515.99 162.38,502.84 C170.87,451.29 209.39,411.49 260.55,401.44 C272.55,399.08 296.37,399.10 307.50,401.47 C354.77,411.57 390.30,445.26 402.56,491.62 C406.05,504.81 407.03,528.87 404.63,542.64 C395.38,595.76 354.69,635.39 301.00,643.55 ZM 612.35 390.82 C611.98,471.20 611.41,536.96 611.08,536.95 C610.43,536.90 600.02,527.04 523.30,453.80 L 470.10 403.02 L 439.54 402.35 C417.57,401.87 408.70,401.34 407.97,400.47 C407.34,399.70 407.07,388.30 407.23,369.38 L 407.50 339.50 L 418.23 338.84 C445.89,337.12 469.95,326.72 490.09,307.76 C504.13,294.55 516.71,274.25 524.34,252.50 L 527.50 243.50 L 569.44 243.24 C592.51,243.10 611.75,243.35 612.20,243.80 C612.66,244.26 612.72,310.41 612.35,390.82 ZM 863.00 584.00 L 863.00 639.00 L 680.00 639.00 L 680.00 403.00 L 863.00 403.00 L 863.00 458.00 L 746.00 458.00 L 746.00 494.00 L 793.44 494.00 C824.32,494.00 841.10,494.35 841.51,495.01 C841.85,495.57 841.81,507.94 841.42,522.51 L 840.70 549.00 L 746.00 549.00 L 746.00 554.34 C746.00,557.28 745.71,565.16 745.35,571.84 L 744.69 584.00 ZM 270.81 581.48 C291.43,585.58 310.48,580.14 325.52,565.85 C337.93,554.07 344.00,539.75 344.00,522.31 C344.00,504.34 338.65,491.37 326.12,478.96 C302.10,455.18 264.59,455.31 240.65,479.25 C222.00,497.90 217.44,526.91 229.53,549.92 C238.01,566.06 253.73,578.08 270.81,581.48 ZM 593.38 621.76 L 611.27 639.00 L 470.22 639.00 L 469.73 635.25 C468.79,628.09 468.98,506.53 469.93,505.05 C470.66,503.92 477.09,509.63 499.18,531.02 C542.72,573.17 551.58,581.72 564.00,593.56 C570.33,599.60 583.55,612.29 593.38,621.76 Z" fill="rgb(251,2,2)"/>
<path d="M 0.00 512.00 L 0.00 0.00 L 512.00 0.00 L 1024.00 0.00 L 1024.00 512.00 L 1024.00 1024.00 L 512.00 1024.00 L 0.00 1024.00 L 0.00 512.00 ZM 418.75 779.73 C419.57,779.09 420.00,775.91 420.00,770.48 C420.00,763.87 419.68,762.09 418.42,761.61 C413.03,759.54 408.00,762.78 408.00,768.31 C408.00,773.16 409.99,775.38 413.84,774.81 C417.13,774.33 418.00,775.87 416.11,778.85 C414.88,780.80 411.43,779.83 411.81,777.63 C412.04,776.35 411.60,775.93 410.31,776.18 C409.30,776.37 408.50,777.39 408.50,778.47 C408.50,781.60 415.29,782.44 418.75,779.73 ZM 585.75 779.19 C586.51,778.24 587.00,774.55 587.00,769.83 C587.00,762.24 586.93,762.02 584.36,761.38 C577.83,759.74 573.31,765.62 575.92,772.36 C576.90,774.88 577.44,775.17 580.52,774.81 C584.13,774.39 585.04,775.81 583.11,778.85 C581.94,780.70 578.47,779.82 578.64,777.71 C578.81,775.62 576.43,775.43 575.65,777.47 C574.21,781.21 582.97,782.70 585.75,779.19 ZM 338.62 774.81 C339.02,774.15 338.82,773.44 338.18,773.23 C336.25,772.58 336.70,763.95 338.75,762.39 C340.42,761.13 340.42,761.06 338.75,761.03 C337.79,761.01 337.00,760.33 337.00,759.50 C337.00,758.67 336.33,758.00 335.50,758.00 C334.67,758.00 334.00,758.64 334.00,759.42 C334.00,760.20 333.44,761.10 332.75,761.42 C331.75,761.88 331.75,762.12 332.75,762.58 C333.54,762.95 334.00,765.31 334.00,769.00 C334.00,774.40 334.56,775.62 337.19,775.92 C337.57,775.96 338.21,775.46 338.62,774.81 ZM 460.43 775.02 C463.73,773.77 463.77,772.13 460.49,772.76 C458.05,773.22 455.00,771.63 455.00,769.88 C455.00,769.39 456.26,769.00 457.81,769.00 C464.05,769.00 466.17,763.49 460.67,761.55 C456.78,760.19 452.62,762.56 452.17,766.40 C451.56,771.72 453.01,774.22 457.68,775.93 C457.79,775.97 459.02,775.56 460.43,775.02 ZM 490.89 773.51 C492.82,771.62 491.66,769.32 487.52,766.88 C483.71,764.63 483.12,763.28 485.55,762.34 C486.45,762.00 487.67,762.54 488.47,763.62 C490.00,765.72 491.57,764.94 490.65,762.54 C489.94,760.68 483.96,760.44 482.20,762.20 C479.98,764.42 480.96,766.95 485.04,769.52 C487.26,770.92 488.81,772.51 488.48,773.04 C487.55,774.54 484.00,774.17 483.36,772.50 C482.63,770.58 481.00,770.55 481.00,772.45 C481.00,775.92 487.69,776.63 490.89,773.51 ZM 503.54 767.58 C503.04,762.89 502.43,761.00 501.42,761.00 C499.52,761.00 499.36,774.60 501.25,775.29 C503.64,776.17 504.25,774.12 503.54,767.58 ZM 511.00 770.52 C511.00,764.88 511.77,763.00 514.11,763.00 C515.75,763.00 516.00,763.78 516.00,769.00 C516.00,774.05 516.28,775.00 517.75,775.00 C519.26,775.00 519.45,774.18 519.16,769.05 C518.76,761.87 517.24,760.09 512.92,761.72 C511.30,762.34 510.00,762.42 510.00,761.91 C510.00,761.41 509.10,761.00 508.00,761.00 C506.89,761.00 506.00,761.67 506.00,762.50 C506.00,763.33 506.45,764.00 507.00,764.00 C507.55,764.00 508.00,766.40 508.00,769.33 C508.00,772.27 508.29,774.95 508.64,775.31 C510.01,776.68 511.00,774.68 511.00,770.52 ZM 529.00 773.89 C529.00,773.40 528.55,773.00 528.00,773.00 C526.18,773.00 526.83,763.85 528.75,762.39 C530.42,761.13 530.42,761.06 528.75,761.03 C527.79,761.01 527.00,760.33 527.00,759.50 C527.00,757.43 524.27,757.61 523.16,759.75 C521.97,762.06 523.46,774.05 525.07,775.04 C526.51,775.93 529.00,775.21 529.00,773.89 ZM 563.20 774.36 C564.14,774.95 565.05,775.22 565.22,774.96 C565.40,774.71 565.31,770.22 565.02,765.00 C564.61,757.45 564.19,755.50 563.00,755.50 C561.96,755.50 561.59,756.34 561.79,758.25 C562.03,760.58 561.70,761.00 559.62,761.00 C555.58,761.00 554.16,761.99 552.95,765.65 C550.85,772.00 554.79,777.31 559.50,774.48 C560.95,773.61 561.97,773.58 563.20,774.36 ZM 672.78 774.44 C674.00,773.59 675.00,772.41 675.00,771.82 C675.00,771.13 674.49,771.17 673.56,771.95 C672.76,772.61 671.07,773.01 669.81,772.83 C667.89,772.56 667.45,771.81 667.20,768.41 C667.00,765.70 667.41,763.91 668.41,763.08 C670.12,761.65 672.00,762.43 672.00,764.56 C672.00,765.35 672.67,766.00 673.50,766.00 C675.30,766.00 675.47,763.87 673.80,762.20 C672.10,760.50 667.43,760.71 665.57,762.57 C661.85,766.30 662.77,773.17 667.24,774.97 C670.31,776.20 670.26,776.20 672.78,774.44 ZM 686.07 774.96 C688.86,773.47 688.44,772.19 685.34,772.79 C680.49,773.71 678.07,767.06 681.97,763.52 C683.89,761.79 683.98,761.82 684.99,764.48 C685.85,766.73 686.29,767.00 687.50,766.00 C689.78,764.10 687.59,761.00 683.96,761.00 C676.42,761.00 674.31,772.17 681.32,774.99 C684.18,776.15 683.86,776.15 686.07,774.96 ZM 701.74 773.29 C701.94,772.69 701.02,772.46 699.53,772.75 C697.05,773.22 694.00,771.64 694.00,769.88 C694.00,769.39 695.15,769.00 696.57,769.00 C700.11,769.00 703.00,767.28 703.00,765.16 C703.00,761.08 697.45,759.60 693.22,762.56 C690.68,764.33 690.12,770.49 692.25,773.22 C694.39,775.98 700.83,776.02 701.74,773.29 ZM 714.89 773.47 C716.83,771.63 715.65,769.31 711.52,766.88 C707.71,764.63 707.12,763.28 709.55,762.34 C710.45,762.00 711.67,762.54 712.47,763.62 C714.00,765.72 715.57,764.94 714.65,762.54 C713.94,760.68 707.96,760.44 706.20,762.20 C703.98,764.42 704.96,766.95 709.04,769.52 C711.26,770.92 712.81,772.51 712.48,773.04 C711.55,774.54 708.00,774.17 707.36,772.50 C706.61,770.54 705.00,770.57 705.00,772.53 C705.00,775.80 711.75,776.44 714.89,773.47 ZM 355.06 773.66 C354.48,773.08 354.00,769.99 354.00,766.80 C354.00,762.31 353.66,761.00 352.50,761.00 C351.35,761.00 351.00,762.26 351.00,766.38 C351.00,770.00 350.50,772.17 349.46,773.04 C347.18,774.92 346.16,773.23 345.81,767.01 C345.57,762.81 345.10,761.44 343.82,761.20 C342.35,760.92 342.20,761.62 342.65,766.69 C343.40,775.15 343.18,774.90 350.00,774.80 C354.30,774.74 355.80,774.40 355.06,773.66 ZM 362.00 770.58 C362.00,765.69 362.75,763.00 364.11,763.00 C364.60,763.00 365.00,763.67 365.00,764.50 C365.00,765.33 365.71,766.00 366.57,766.00 C367.63,766.00 368.03,765.26 367.82,763.75 C367.54,761.77 366.87,761.48 362.25,761.32 C358.28,761.19 357.00,761.49 357.00,762.57 C357.00,763.36 357.45,764.00 358.00,764.00 C358.55,764.00 359.00,766.47 359.00,769.50 C359.00,773.72 359.35,775.00 360.50,775.00 C361.61,775.00 362.00,773.84 362.00,770.58 ZM 374.20 769.85 C374.40,766.33 375.04,764.37 376.20,763.64 C378.60,762.13 379.27,763.22 379.79,769.50 C380.11,773.28 380.68,775.00 381.62,775.00 C382.61,775.00 383.00,773.57 383.00,769.93 C383.00,762.20 382.01,761.05 375.56,761.31 C372.58,761.43 369.81,761.86 369.40,762.27 C369.00,762.67 369.19,763.00 369.83,763.00 C370.59,763.00 371.00,765.10 371.00,769.00 C371.00,773.57 371.34,775.00 372.45,775.00 C373.48,775.00 373.98,773.54 374.20,769.85 ZM 389.80 768.33 C389.61,764.11 389.04,761.51 388.25,761.25 C387.33,760.94 387.00,762.70 387.00,767.92 C387.00,773.64 387.30,775.00 388.55,775.00 C389.82,775.00 390.04,773.81 389.80,768.33 ZM 397.00 770.58 C397.00,764.95 397.77,763.00 399.98,763.00 C401.83,763.00 403.00,766.55 403.00,772.12 C403.00,774.01 403.51,775.00 404.50,775.00 C405.61,775.00 406.00,773.84 406.00,770.57 C406.00,764.11 404.56,761.00 401.58,761.00 C400.23,761.00 398.85,761.44 398.51,761.98 C398.13,762.60 397.20,762.51 395.98,761.75 C394.47,760.81 393.78,760.82 392.82,761.78 C391.89,762.71 391.88,763.00 392.80,763.00 C393.60,763.00 394.00,765.00 394.00,769.00 C394.00,773.67 394.33,775.00 395.50,775.00 C396.61,775.00 397.00,773.84 397.00,770.58 ZM 433.00 768.00 C433.00,762.44 432.69,761.00 431.50,761.00 C430.31,761.00 430.00,762.44 430.00,768.00 C430.00,773.56 430.31,775.00 431.50,775.00 C432.69,775.00 433.00,773.56 433.00,768.00 ZM 444.80 773.80 C445.73,772.87 446.00,772.87 446.00,773.80 C446.00,774.46 446.90,775.00 448.00,775.00 C449.10,775.00 450.00,774.55 450.00,774.00 C450.00,773.45 449.55,773.00 449.00,773.00 C448.41,773.00 448.00,769.50 448.00,764.50 C448.00,757.61 447.72,756.00 446.50,756.00 C445.57,756.00 445.00,756.94 445.00,758.50 C445.00,760.60 444.53,761.00 442.06,761.00 C437.08,761.00 434.23,767.83 437.04,773.07 C438.21,775.26 442.90,775.70 444.80,773.80 ZM 473.80 773.80 C474.73,772.87 475.00,772.87 475.00,773.80 C475.00,774.46 475.89,775.00 476.98,775.00 C478.57,775.00 478.87,774.47 478.52,772.25 C478.28,770.74 477.82,767.82 477.50,765.76 C477.04,762.86 476.36,761.88 474.46,761.40 C470.37,760.37 466.82,761.74 467.19,764.21 C467.66,767.43 470.00,767.68 470.00,764.51 C470.00,762.52 470.44,761.94 471.75,762.19 C472.71,762.37 473.62,763.42 473.77,764.51 C473.97,766.00 473.03,766.92 470.02,768.18 C466.23,769.76 464.77,772.43 466.67,774.33 C467.77,775.44 472.52,775.08 473.80,773.80 ZM 543.81 771.72 C544.84,769.57 544.88,768.18 544.02,765.56 C541.45,757.78 531.47,760.23 531.70,768.58 C531.85,773.58 533.54,775.16 538.41,774.80 C541.74,774.56 542.73,773.99 543.81,771.72 ZM 572.00 768.00 C572.00,762.44 571.69,761.00 570.50,761.00 C569.31,761.00 569.00,762.44 569.00,768.00 C569.00,773.56 569.31,775.00 570.50,775.00 C571.69,775.00 572.00,773.56 572.00,768.00 ZM 594.00 768.00 C594.00,762.44 593.69,761.00 592.50,761.00 C591.31,761.00 591.00,762.44 591.00,768.00 C591.00,773.56 591.31,775.00 592.50,775.00 C593.69,775.00 594.00,773.56 594.00,768.00 ZM 604.00 774.00 C604.00,773.45 603.33,773.00 602.50,773.00 C601.37,773.00 601.00,771.79 601.00,768.15 C601.00,764.11 601.38,763.12 603.25,762.22 C605.04,761.36 605.14,761.12 603.75,761.07 C602.79,761.03 602.00,760.33 602.00,759.50 C602.00,758.67 601.11,758.00 600.00,758.00 C598.89,758.00 598.00,758.67 598.00,759.50 C598.00,760.33 597.46,761.00 596.80,761.00 C595.87,761.00 595.87,761.27 596.80,762.20 C597.46,762.86 598.00,765.30 598.00,767.62 C598.00,769.94 598.27,772.55 598.61,773.42 C599.26,775.13 604.00,775.64 604.00,774.00 ZM 613.92 773.75 C614.98,772.75 615.34,772.75 615.71,773.75 C615.96,774.44 617.03,775.00 618.08,775.00 C620.12,775.00 620.66,773.53 619.00,772.50 C618.45,772.16 618.00,769.97 618.00,767.64 C618.00,762.57 616.68,761.00 612.42,761.00 C608.90,761.00 606.46,763.16 607.36,765.49 C608.29,767.92 611.01,767.33 610.74,764.75 C610.41,761.68 614.37,761.56 614.80,764.63 C615.03,766.24 614.43,766.93 612.31,767.46 C608.45,768.43 607.00,769.84 607.00,772.62 C607.00,774.56 607.52,775.00 609.80,775.00 C611.34,775.00 613.20,774.44 613.92,773.75 ZM 627.20 773.80 C626.46,773.06 626.00,769.46 626.00,764.47 C626.00,755.90 625.67,754.80 623.40,755.68 C622.36,756.07 622.00,758.25 622.00,764.03 C622.00,773.58 622.49,775.00 625.81,775.00 C627.82,775.00 628.13,774.73 627.20,773.80 ZM 644.80 773.80 C647.01,771.59 646.11,769.02 642.54,767.32 C638.57,765.43 637.30,763.21 639.66,762.30 C640.65,761.92 641.82,762.40 642.63,763.51 C644.15,765.59 645.56,764.91 644.65,762.54 C643.88,760.52 638.61,760.53 636.57,762.57 C634.78,764.37 634.79,764.30 635.62,766.46 C635.96,767.35 637.76,768.71 639.62,769.49 C641.48,770.26 643.00,771.60 643.00,772.45 C643.00,774.61 638.36,774.46 637.12,772.26 C635.98,770.21 634.48,771.21 635.35,773.46 C636.07,775.33 643.01,775.59 644.80,773.80 ZM 662.00 773.86 C662.00,773.39 661.55,773.00 661.00,773.00 C660.44,773.00 660.00,770.33 660.00,767.00 C660.00,762.33 659.67,761.00 658.50,761.00 C657.39,761.00 657.00,762.17 657.00,765.57 C657.00,770.69 655.63,774.00 653.51,774.00 C652.47,774.00 652.02,772.34 651.80,767.75 C651.57,762.99 651.14,761.50 650.00,761.50 C648.79,761.50 648.57,762.68 648.85,767.50 C649.05,770.80 649.40,773.81 649.63,774.19 C650.24,775.20 662.00,774.88 662.00,773.86 ZM 727.80 771.88 C728.05,769.79 727.39,768.84 724.55,767.16 C722.60,766.01 721.00,764.38 721.00,763.53 C721.00,761.56 723.88,761.53 724.64,763.50 C725.38,765.44 728.00,765.45 728.00,763.52 C728.00,761.71 723.90,760.56 720.50,761.41 C716.39,762.44 717.15,766.44 722.04,769.52 C724.26,770.92 725.81,772.51 725.48,773.04 C724.51,774.61 720.82,774.13 719.39,772.25 C718.25,770.74 718.06,770.72 718.03,772.08 C717.98,774.55 719.11,775.12 723.46,774.80 C726.98,774.54 727.54,774.16 727.80,771.88 ZM 735.00 773.50 C735.00,772.67 734.33,772.00 733.50,772.00 C732.67,772.00 732.00,772.67 732.00,773.50 C732.00,774.33 732.67,775.00 733.50,775.00 C734.33,775.00 735.00,774.33 735.00,773.50 ZM 743.00 773.50 C743.00,772.67 742.35,772.00 741.56,772.00 C739.89,772.00 738.76,773.43 739.69,774.36 C740.89,775.56 743.00,775.01 743.00,773.50 ZM 751.00 773.50 C751.00,772.67 750.11,772.00 749.00,772.00 C747.89,772.00 747.00,772.67 747.00,773.50 C747.00,774.33 747.89,775.00 749.00,775.00 C750.11,775.00 751.00,774.33 751.00,773.50 ZM 390.00 757.50 C390.00,756.67 389.11,756.00 388.00,756.00 C386.89,756.00 386.00,756.67 386.00,757.50 C386.00,758.33 386.89,759.00 388.00,759.00 C389.11,759.00 390.00,758.33 390.00,757.50 ZM 433.00 757.50 C433.00,756.67 432.33,756.00 431.50,756.00 C430.67,756.00 430.00,756.67 430.00,757.50 C430.00,758.33 430.67,759.00 431.50,759.00 C432.33,759.00 433.00,758.33 433.00,757.50 ZM 503.00 757.50 C503.00,756.67 502.33,756.00 501.50,756.00 C500.67,756.00 500.00,756.67 500.00,757.50 C500.00,758.33 500.67,759.00 501.50,759.00 C502.33,759.00 503.00,758.33 503.00,757.50 ZM 572.00 757.50 C572.00,756.67 571.33,756.00 570.50,756.00 C569.67,756.00 569.00,756.67 569.00,757.50 C569.00,758.33 569.67,759.00 570.50,759.00 C571.33,759.00 572.00,758.33 572.00,757.50 ZM 594.00 757.50 C594.00,756.67 593.33,756.00 592.50,756.00 C591.67,756.00 591.00,756.67 591.00,757.50 C591.00,758.33 591.67,759.00 592.50,759.00 C593.33,759.00 594.00,758.33 594.00,757.50 ZM 360.17 742.97 C362.23,742.40 365.19,740.41 366.92,738.44 L 370.00 734.93 L 370.00 715.97 L 370.00 697.00 L 365.58 697.00 C363.06,697.00 361.00,697.51 360.77,698.19 C360.49,699.03 359.67,698.89 357.96,697.69 C355.24,695.78 350.21,695.49 346.80,697.05 C345.53,697.63 343.38,699.76 342.00,701.80 C339.87,704.96 339.51,706.60 339.56,713.00 C339.66,726.80 346.12,732.86 357.25,729.59 C359.65,728.89 360.00,729.06 360.00,730.94 C360.00,734.13 355.03,735.93 349.21,734.85 C344.11,733.89 343.04,734.63 343.02,739.15 C343.00,741.37 343.60,741.96 346.75,742.80 C351.80,744.14 355.77,744.19 360.17,742.97 ZM 763.99 741.50 C770.28,738.25 770.99,735.59 771.00,715.25 L 771.00 697.00 L 766.47 697.00 C763.29,697.00 761.76,697.46 761.34,698.55 C760.83,699.88 760.40,699.78 758.41,697.92 C756.49,696.12 755.28,695.82 751.50,696.25 C746.36,696.83 743.87,698.64 741.57,703.49 C739.55,707.76 739.49,719.12 741.48,722.96 C744.72,729.22 751.77,732.26 756.99,729.65 C759.90,728.20 760.00,728.23 760.00,730.45 C760.00,734.74 756.37,736.01 748.25,734.58 C743.70,733.77 743.88,733.57 743.58,739.72 C743.39,743.71 757.35,744.94 763.99,741.50 ZM 794.06 740.26 C795.70,738.42 799.02,730.46 803.31,718.10 C806.99,707.49 810.00,698.40 810.00,697.90 C810.00,697.41 807.77,697.00 805.04,697.00 C799.31,697.00 799.17,697.18 796.49,707.25 C795.51,710.96 794.37,714.00 793.96,714.00 C793.56,714.00 792.93,712.46 792.58,710.58 C792.23,708.70 791.26,704.87 790.43,702.08 L 788.92 697.00 L 783.35 697.00 C778.44,697.00 777.87,697.21 778.51,698.75 C778.91,699.71 781.50,707.21 784.28,715.41 C788.97,729.24 789.23,730.50 787.88,732.90 C787.08,734.32 785.55,735.65 784.47,735.86 C782.09,736.31 781.04,737.78 781.02,740.67 C781.00,743.40 782.46,744.05 787.50,743.53 C790.31,743.24 792.26,742.27 794.06,740.26 ZM 419.81 727.31 C420.07,724.61 419.64,723.87 417.06,722.53 C414.01,720.95 414.00,720.92 414.00,712.47 C414.00,704.10 414.03,704.00 416.50,704.00 C418.68,704.00 419.00,703.56 419.00,700.57 C419.00,697.77 418.58,697.08 416.75,696.82 C414.88,696.55 414.45,695.78 414.19,692.25 L 413.89 688.00 L 409.00 688.00 L 404.11 688.00 L 403.81 692.25 C403.55,695.82 403.13,696.55 401.19,696.83 C399.26,697.10 398.93,697.66 399.19,700.33 C399.43,702.74 400.04,703.58 401.75,703.82 C403.91,704.13 404.00,704.53 404.02,714.32 C404.04,722.46 404.39,724.93 405.77,726.62 C408.42,729.87 411.12,731.01 415.50,730.75 C419.21,730.52 419.52,730.27 419.81,727.31 ZM 507.53 729.89 C513.08,728.49 514.55,726.90 512.99,723.98 C511.94,722.01 511.31,721.88 505.96,722.50 C500.42,723.15 499.94,723.03 497.30,720.34 L 494.50 717.50 L 504.25 717.21 L 514.00 716.93 L 514.00 710.83 C514.00,699.93 509.07,695.33 498.33,696.22 C493.29,696.64 492.27,697.13 488.92,700.72 C480.79,709.43 483.10,724.42 493.27,729.04 C498.15,731.25 501.35,731.44 507.53,729.89 ZM 545.01 728.87 C548.84,726.72 551.00,723.51 551.00,719.95 C551.00,718.31 550.30,718.00 546.57,718.00 C543.08,718.00 542.01,718.41 541.53,719.91 C540.25,723.93 535.07,723.64 533.15,719.43 C531.51,715.84 531.73,708.83 533.56,706.22 C535.71,703.15 539.72,703.29 541.18,706.50 C542.14,708.61 543.00,709.00 546.66,709.00 C550.74,709.00 551.00,708.83 551.00,706.22 C551.00,694.36 530.77,692.13 523.99,703.24 C521.12,707.96 521.24,717.87 524.25,723.26 C528.24,730.43 537.70,732.98 545.01,728.87 ZM 663.82 728.33 C665.30,727.26 667.55,724.38 668.82,721.94 C673.26,713.45 669.87,700.52 662.38,697.39 C652.53,693.27 641.66,697.99 638.99,707.55 C636.46,716.55 640.54,726.06 648.48,729.66 C652.48,731.48 660.45,730.79 663.82,728.33 ZM 724.80 728.30 C729.83,724.54 731.42,721.34 731.77,714.22 C732.34,702.80 726.76,696.00 716.82,696.00 C706.52,696.00 700.91,701.11 700.18,711.15 C699.95,714.33 700.05,718.06 700.40,719.45 C701.32,723.14 706.73,728.85 710.35,729.96 C714.85,731.34 721.80,730.54 724.80,728.30 ZM 298.30 728.65 C302.66,726.83 307.75,720.82 308.55,716.57 C308.91,714.67 309.04,709.11 308.85,704.22 C308.54,696.41 308.17,694.91 305.81,691.81 C301.53,686.21 297.85,685.00 285.10,685.00 L 274.00 685.00 L 274.00 707.50 L 274.00 730.00 L 284.53 730.00 C291.12,730.00 296.28,729.49 298.30,728.65 ZM 329.77 713.25 L 330.05 697.00 L 325.02 697.00 L 320.00 697.00 L 320.00 713.55 L 320.00 730.11 L 324.75 729.80 L 329.50 729.50 L 329.77 713.25 ZM 391.00 713.50 L 391.00 697.00 L 386.00 697.00 L 381.00 697.00 L 381.00 712.83 C381.00,721.54 381.30,728.97 381.67,729.33 C382.03,729.70 384.28,730.00 386.67,730.00 L 391.00 730.00 L 391.00 713.50 ZM 469.00 711.55 L 469.00 693.10 L 474.75 692.80 L 480.50 692.50 L 480.81 688.75 L 481.12 685.00 L 463.50 685.00 L 445.88 685.00 L 446.19 688.75 L 446.50 692.50 L 452.25 692.80 L 458.00 693.10 L 458.00 710.88 C458.00,720.66 458.30,728.97 458.67,729.33 C459.03,729.70 461.51,730.00 464.17,730.00 L 469.00 730.00 L 469.00 711.55 ZM 569.78 717.26 C570.06,705.29 570.11,705.01 572.45,704.42 C578.20,702.98 578.46,703.47 579.00,717.01 L 579.50 729.50 L 584.75 729.80 L 590.00 730.10 L 589.99 718.80 C589.99,705.62 588.92,700.87 585.33,698.05 C581.91,695.35 576.08,695.36 572.63,698.07 L 570.00 700.15 L 570.00 691.07 L 570.00 682.00 L 565.00 682.00 L 560.00 682.00 L 560.00 706.05 L 560.00 730.11 L 564.75 729.80 L 569.50 729.50 L 569.78 717.26 ZM 610.00 717.52 C610.00,705.15 610.02,705.03 612.42,704.43 C618.21,702.98 618.46,703.46 619.00,717.01 L 619.50 729.50 L 624.75 729.80 L 630.00 730.10 L 629.99 718.80 C629.99,705.52 628.92,700.87 625.22,697.95 C623.09,696.27 621.57,695.91 618.21,696.28 C615.85,696.55 613.11,697.49 612.13,698.38 C609.90,700.40 609.00,700.43 609.00,698.50 C609.00,697.37 607.78,697.00 604.00,697.00 L 599.00 697.00 L 599.00 712.83 C599.00,721.54 599.30,728.97 599.67,729.33 C600.03,729.70 602.51,730.00 605.17,730.00 L 610.00 730.00 L 610.00 717.52 ZM 690.00 706.00 L 690.00 682.00 L 685.00 682.00 L 680.00 682.00 L 680.00 706.00 L 680.00 730.00 L 685.00 730.00 L 690.00 730.00 L 690.00 706.00 ZM 330.00 685.00 C330.00,682.07 329.89,682.00 325.00,682.00 C320.11,682.00 320.00,682.07 320.00,685.00 C320.00,687.93 320.11,688.00 325.00,688.00 C329.89,688.00 330.00,687.93 330.00,685.00 ZM 391.00 685.00 C391.00,682.07 390.89,682.00 386.00,682.00 C381.11,682.00 381.00,682.07 381.00,685.00 C381.00,687.93 381.11,688.00 386.00,688.00 C390.89,688.00 391.00,687.93 391.00,685.00 ZM 301.00 643.55 C354.69,635.39 395.38,595.76 404.63,542.64 C407.03,528.87 406.05,504.81 402.56,491.62 C390.30,445.26 354.77,411.57 307.50,401.47 C296.37,399.10 272.55,399.08 260.55,401.44 C209.39,411.49 170.87,451.29 162.38,502.84 C160.22,515.99 160.95,538.17 163.94,550.00 C173.45,587.67 197.25,616.94 231.56,633.12 C253.53,643.48 277.61,647.10 301.00,643.55 ZM 593.38 621.76 C583.55,612.29 570.33,599.60 564.00,593.56 C551.58,581.72 542.72,573.17 499.18,531.02 C477.09,509.63 470.66,503.92 469.93,505.05 C468.98,506.53 468.79,628.09 469.73,635.25 L 470.22 639.00 L 540.74 639.00 L 611.27 639.00 L 593.38 621.76 ZM 863.00 611.50 L 863.00 584.00 L 803.85 584.00 L 744.69 584.00 L 745.35 571.84 C745.71,565.16 746.00,557.28 746.00,554.34 L 746.00 549.00 L 793.35 549.00 L 840.70 549.00 L 841.42 522.51 C841.81,507.94 841.85,495.57 841.51,495.01 C841.10,494.35 824.32,494.00 793.44,494.00 L 746.00 494.00 L 746.00 476.00 L 746.00 458.00 L 804.50 458.00 L 863.00 458.00 L 863.00 430.50 L 863.00 403.00 L 771.50 403.00 L 680.00 403.00 L 680.00 521.00 L 680.00 639.00 L 771.50 639.00 L 863.00 639.00 L 863.00 611.50 ZM 612.35 390.82 C612.72,310.41 612.66,244.26 612.20,243.80 C611.75,243.35 592.51,243.10 569.44,243.24 L 527.50 243.50 L 524.34 252.50 C516.71,274.25 504.13,294.55 490.09,307.76 C469.95,326.72 445.89,337.12 418.23,338.84 L 407.50 339.50 L 407.23 369.38 C407.07,388.30 407.34,399.70 407.97,400.47 C408.70,401.34 417.57,401.87 439.54,402.35 L 470.10 403.02 L 523.30 453.80 C600.02,527.04 610.43,536.90 611.08,536.95 C611.41,536.98 611.98,471.22 612.35,390.82 ZM 412.41 772.61 C412.11,771.85 412.01,769.26 412.19,766.86 C412.44,763.27 412.85,762.50 414.50,762.50 C416.14,762.50 416.56,763.27 416.81,766.82 C417.21,772.34 413.95,776.63 412.41,772.61 ZM 579.67 773.33 C578.39,772.05 578.98,764.26 580.46,763.04 C582.72,761.16 584.00,762.72 584.00,767.36 C584.00,772.34 581.76,775.43 579.67,773.33 ZM 455.00 766.20 C455.00,764.09 456.84,762.00 458.70,762.00 C460.56,762.00 460.31,766.67 458.42,767.39 C455.83,768.39 455.00,768.10 455.00,766.20 ZM 556.69 773.35 C555.84,772.50 555.78,766.73 556.61,764.58 C557.56,762.10 560.88,762.66 561.57,765.43 C562.55,769.35 558.79,775.46 556.69,773.35 ZM 694.00 766.19 C694.00,763.60 696.72,761.32 698.14,762.74 C699.82,764.42 698.68,767.47 696.24,767.82 C694.58,768.06 694.00,767.64 694.00,766.19 ZM 439.80 771.46 C438.25,768.07 439.82,763.50 442.52,763.50 C444.02,763.50 444.58,764.28 444.81,766.70 C445.14,770.09 443.60,774.00 441.94,774.00 C441.40,774.00 440.44,772.86 439.80,771.46 ZM 469.17 771.33 C469.37,770.31 470.56,769.35 471.85,769.17 C473.65,768.91 474.10,769.25 473.83,770.67 C473.63,771.69 472.44,772.65 471.15,772.83 C469.35,773.09 468.90,772.75 469.17,771.33 ZM 535.71 773.38 C534.37,772.04 534.96,764.28 536.50,763.00 C539.14,760.81 541.14,763.58 540.80,768.91 C540.56,772.65 540.12,773.55 538.46,773.79 C537.34,773.95 536.10,773.77 535.71,773.38 ZM 610.00 771.54 C610.00,769.76 613.64,767.60 614.44,768.91 C614.75,769.41 614.73,770.54 614.40,771.41 C613.63,773.41 610.00,773.51 610.00,771.54 ZM 351.57 721.08 C349.12,718.37 349.09,708.67 351.52,705.97 C353.34,703.96 355.58,703.52 358.42,704.61 C359.67,705.09 360.00,706.83 360.00,713.07 C360.00,719.82 359.73,721.08 358.07,721.96 C355.24,723.48 353.53,723.24 351.57,721.08 ZM 752.54 721.65 C749.86,719.69 749.16,709.94 751.44,706.45 C752.77,704.43 753.80,703.95 756.31,704.19 L 759.50 704.50 L 759.79 712.91 C760.09,721.52 759.55,722.95 755.94,722.98 C755.08,722.99 753.55,722.39 752.54,721.65 ZM 495.00 708.69 C495.00,705.92 497.56,703.82 500.55,704.16 C502.92,704.43 503.56,705.04 503.82,707.25 C504.12,709.89 503.96,710.00 499.57,710.00 C496.47,710.00 495.00,709.58 495.00,708.69 ZM 651.00 721.00 C649.46,719.46 649.00,717.67 649.00,713.15 C649.00,706.57 650.77,704.00 655.29,704.00 C658.72,704.00 660.00,706.50 660.00,713.21 C660.00,721.88 655.65,725.65 651.00,721.00 ZM 712.98 721.19 C711.36,719.87 710.63,718.02 710.33,714.44 C709.76,707.60 711.53,704.50 716.00,704.50 C718.67,704.50 719.73,705.06 720.71,707.00 C723.09,711.71 721.94,720.01 718.60,722.23 C716.85,723.40 715.38,723.13 712.98,721.19 ZM 284.67 721.33 C284.30,720.97 284.00,714.44 284.00,706.83 L 284.00 693.00 L 289.00 693.00 C297.26,693.00 299.66,697.28 298.82,710.49 C298.29,718.80 295.70,722.00 289.49,722.00 C287.20,722.00 285.03,721.70 284.67,721.33 ZM 270.81 581.48 C253.73,578.08 238.01,566.06 229.53,549.92 C217.44,526.91 222.00,497.90 240.65,479.25 C264.59,455.31 302.10,455.18 326.12,478.96 C338.65,491.37 344.00,504.34 344.00,522.31 C344.00,539.75 337.93,554.07 325.52,565.85 C310.48,580.14 291.43,585.58 270.81,581.48 Z" fill="rgb(254,254,254)"/>
</g>
</svg>